<svg xmlns="http://www.w3.org/2000/svg" viewBox="-50 -65 100 100" width="250" height="250"><title>Slate ronsoco / original articulated character</title><g transform="translate(0 0)"></g><g transform="translate(-12 11) rotate(0)"><g transform="translate(0 0)"><g stroke="#49332f" stroke-width="2.5" stroke-linejoin="round" stroke-linecap="round"><path fill="#60768f" d="M-6-5Q0-8 6-4L5 8Q0 11-5 8Z"/><path fill="#755047" stroke="none" d="M1-3L4-1L3 7L0 8L-2 6L1 5Z"/></g></g><g transform="translate(0 7)"><g stroke="#49332f" stroke-width="2.5" stroke-linejoin="round" stroke-linecap="round"><path fill="#60768f" d="M-6-1Q-5-5 1-4L6-2Q12-3 13 2Q15 6 8 6H-5Q-9 5-6-1Z"/><path fill="#91a9be" stroke="none" d="M-4-1L0-2L4 0L9 0L10 2H4L0 1L-4 2Z"/><path fill="#60768f" stroke="none" d="M-5 3Q3 5 11 3L10 5H-4Z"/><path fill="none" stroke="#49332f" stroke-width="1.3" d="M4 2l-.5 3M8 2l-.5 3"/></g></g></g><g transform="translate(11 11) rotate(0)"><g transform="translate(0 0)"><g stroke="#49332f" stroke-width="2.5" stroke-linejoin="round" stroke-linecap="round"><path fill="#91a9be" d="M-6-5Q0-8 6-4L5 8Q0 11-5 8Z"/><path fill="#60768f" stroke="none" d="M1-3L4-1L3 7L0 8L-2 6L1 5Z"/></g></g><g transform="translate(0 7)"><g stroke="#49332f" stroke-width="2.5" stroke-linejoin="round" stroke-linecap="round"><path fill="#91a9be" d="M-6-1Q-5-5 1-4L6-2Q12-3 13 2Q15 6 8 6H-5Q-9 5-6-1Z"/><path fill="#dce8ec" stroke="none" d="M-4-1L0-2L4 0L9 0L10 2H4L0 1L-4 2Z"/><path fill="#60768f" stroke="none" d="M-5 3Q3 5 11 3L10 5H-4Z"/><path fill="none" stroke="#49332f" stroke-width="1.3" d="M4 2l-.5 3M8 2l-.5 3"/></g></g></g><g transform="translate(-36 -3) rotate(-85.94366926962348)"><g transform="translate(0 0)"><g stroke="#49332f" stroke-width="2.5" stroke-linejoin="round" stroke-linecap="round"><path fill="#60768f" d="M-4-5L0-5L1-7L6-7L10-4L12-1L11 6L6 8L-1 6Q-7 3-4-5Z"/><path fill="#60768f" stroke="none" d="M0 3L6 4L10 1L10 5L6 7L0 5Z"/><path fill="none" stroke-width="1.3" d="M2-3L5-1L9-1M4 2l5 1M5 5l3 1"/></g></g></g><g transform="translate(0 0)"><g stroke="#49332f" stroke-width="2.5" stroke-linejoin="round" stroke-linecap="round"><path fill="#91a9be" d="M-17-14Q-6-19 9-16Q22-14 24-3L24 7Q23 16 12 18L-10 18Q-22 17-24 7L-24-3Q-23-11-17-14Z"/><path fill="#60768f" stroke="none" d="M-21-4Q-22 9-13 12L11 15Q-1 18-12 15Q-23 14-21-4Z"/><path fill="#fff0cf" stroke="none" d="M0-11Q12-13 17-4Q21 4 16 11Q13 16 3 15Q-9 15-11 6Q-14-4 0-11Z"/><path fill="#dfbd94" stroke="none" d="M17 1Q18 12 7 12L-5 10Q0 16 9 14Q19 13 17 1Z"/><path fill="#dce8ec" stroke="none" d="M-18-8L-12-11L-8-10L-12-7L-17-5Z"/><path fill="none" stroke="#60768f" stroke-width="1.5" d="M-17 1l1 3m3-2 1 3"/></g></g><g transform="translate(36 5) rotate(-74.48451336700703)"><g transform="translate(0 0)"><g stroke="#49332f" stroke-width="2.5" stroke-linejoin="round" stroke-linecap="round"><path fill="#91a9be" d="M-4-5L0-5L1-7L6-7L10-4L12-1L11 6L6 8L-1 6Q-7 3-4-5Z"/><path fill="#60768f" stroke="none" d="M0 3L6 4L10 1L10 5L6 7L0 5Z"/><path fill="none" stroke-width="1.3" d="M2-3L5-1L9-1M4 2l5 1M5 5l3 1"/></g></g></g><g transform="translate(0 -15) scale(0.94)"><g transform="translate(-16 -21)"><g stroke="#49332f" stroke-width="2.5" stroke-linejoin="round" stroke-linecap="round"><path fill="#60768f" d="M-6 5Q-11-1-8-7Q-6-12 1-10Q8-9 8-3L5 6Z"/><path fill="#bd7d6e" stroke="none" d="M-4 2Q-7-6-1-7Q6-8 5-2L3 2Z"/><path fill="none" stroke-width="1.3" d="M-3 2Q-4-3 1-3"/></g></g><g transform="translate(7 -23)"><g stroke="#49332f" stroke-width="2.5" stroke-linejoin="round" stroke-linecap="round"><path fill="#91a9be" d="M-7 5L-8-3Q-9-10-2-11Q7-12 9-5Q10 1 6 6Z"/><path fill="#e5a18a" stroke="none" d="M-4 2Q-7-6-1-7Q6-8 5-2L3 2Z"/><path fill="none" stroke-width="1.3" d="M-3 2Q-4-3 1-3"/></g></g><g transform="translate(0 0)"><g stroke="#49332f" stroke-width="2.5" stroke-linejoin="round" stroke-linecap="round"><path fill="#91a9be" d="M-25-15Q-23-25-12-26L-5-26L-1-29L4-26L15-25Q25-23 30-13L33-6L34 4Q33 12 24 13L-5 13Q-22 12-26 4Q-29-5-25-15Z"/><path fill="#60768f" stroke="none" d="M-24-12Q-26 1-18 5Q-8 10 10 10L25 10Q20 13 5 11L-7 11Q-24 9-24 1Z"/><path fill="#dce8ec" stroke="none" d="M-20-18Q-16-23-9-22L-5-21L-11-18L-17-15Z"/><path fill="#fff0cf" stroke="none" d="M8-8Q22-13 29-7L31-2L31 5Q29 11 20 10L6 10Q-5 9-6 2Q-7-5 8-8Z"/><path fill="#dfbd94" stroke="none" d="M-4 4Q8 10 26 7L29 3Q30 10 21 10H7Q-1 9-4 4Z"/><path fill="#60768f" stroke="none" d="M23-12Q29-11 31-6L27-5L22-7Z"/><path fill="#49332f" stroke="none" d="M26-8Q29-9 29-5L26-4Z M31-7L32-4L30-3L29-6Z"/><path fill="none" stroke-width="1.7" d="M9 8Q18 2 29 7M9 6L7 9"/><path fill="#dfbd94" stroke="none" d="M3 0h1.5v1.5H3Zm4-2h1.5v1.5H7Zm1 4h1.5v1.5H8Z"/><path fill="none" stroke="#60768f" stroke-width="1.3" d="M-18-4l3 1m-2 3 3 1"/></g></g><g transform="translate(0 0)"><g stroke="#49332f" stroke-width="2.5" stroke-linejoin="round" stroke-linecap="round"><path fill="#fff9e9" stroke-width="1.6" d="M17-11L23-15L22-9L18-8Z"/><path fill="#49332f" stroke="none" d="M20-15L23-14L22-10L20-10Z"/><path fill="#fff9e9" stroke-width="2" d="M-9-15Q-1-17 8-14L7-7Q0-2-7-7Z"/><path fill="#49332f" stroke="none" d="M2-15L7-14L6-8Q3-5 1-8Z"/><circle fill="#fff9e9" stroke="none" cx="4.5" cy="-10.5" r="1"/><path fill="#91a9be" stroke="none" d="M-9-17L8-12L7-9L-8-13Z"/><path fill="none" stroke-width="2.1" d="M-9-14L8-9M17-10l6-3"/><path fill="#49332f" stroke="none" d="M-11-23L-3-22L10-16L9-11L-2-16L-11-18Z M16-15L22-21L25-18L17-11Z"/><path fill="none" stroke-width="1.5" d="M9-25l3 4M16-25l-2 4"/><path fill="none" stroke="#60768f" stroke-width="1.3" d="M-7-3l5 1"/></g></g></g></svg>