<svg xmlns="http://www.w3.org/2000/svg" viewBox="-40 -50 80 100" width="160" height="200"><title>cuy eyes</title><g stroke="#49332f" stroke-width="2.5" stroke-linejoin="round" stroke-linecap="round"><path fill="#fff9e9" stroke-width="1.7" d="M16-12L23-17L23-10Q21-5 17-7Z"/><path fill="#49332f" stroke="none" d="M20-14Q23-14 23-10Q23-6 20-7Q18-10 20-14Z"/><path fill="#fff9e9" stroke-width="2" d="M-8-18L10-11Q8-2 1-4Q-8-5-8-18Z"/><path fill="#49332f" stroke="none" d="M3-13Q8-13 7-8Q5-4 2-6Q0-9 3-13Z"/><ellipse fill="#fff9e9" stroke="none" cx="4.6" cy="-10" rx="1.3" ry="1.8"/><path fill="#49332f" stroke="none" d="M-10-24Q-1-22 11-14L10-10Q0-16-10-19Z M15-15L23-22L25-18L16-11Z"/><path fill="none" stroke-width="1.4" d="M10-23l3 4M15-24l-1 4"/><path fill="none" stroke="#60768f" stroke-width="1.2" d="M-7-1Q-2 1 2 0"/></g></svg>