<svg xmlns="http://www.w3.org/2000/svg" viewBox="0 0 1792 1024"><title>Cloudbreak Valley playable terrain preview</title><defs><clipPath id="land"><path d="M808 256h176v8H808ZM784 264h224v8H784ZM768 272h256v8H768ZM752 280h288v8H752ZM744 288h304v8H744ZM744 296h304v8H744ZM744 304h304v8H744ZM752 312h288v8H752ZM768 320h256v8H768ZM784 328h224v8H784ZM808 336h176v8H808ZM584 440h208v8H584ZM840 440h112v8H840ZM1000 440h208v8H1000ZM576 448h640v8H576ZM576 456h640v8H576ZM584 464h624v8H584ZM584 472h624v8H584ZM608 480h600v8H608ZM656 488h488v8H656ZM680 496h456v8H680ZM424 504h112v8H424ZM688 504h416v8H688ZM1112 504h16v8H1112ZM1256 504h112v8H1256ZM416 512h128v8H416ZM680 512h432v8H680ZM1248 512h128v8H1248ZM472 520h24v8H472ZM672 520h448v8H672ZM1304 520h24v8H1304ZM664 528h464v8H664ZM656 536h480v8H656ZM1616 536h112v8H1616ZM64 544h112v8H64ZM648 544h496v8H648ZM1616 544h112v8H1616ZM64 552h112v8H64ZM648 552h496v8H648ZM1616 552h112v8H1616ZM64 560h112v8H64ZM640 560h512v8H640ZM1616 560h112v8H1616ZM64 568h112v8H64ZM632 568h232v8H632ZM928 568h232v8H928ZM1616 568h112v8H1616ZM64 576h112v8H64ZM632 576h216v8H632ZM944 576h216v8H944ZM1616 576h112v8H1616ZM64 584h112v8H64ZM624 584h208v8H624ZM960 584h208v8H960ZM1616 584h112v8H1616ZM64 592h112v8H64ZM624 592h200v8H624ZM968 592h200v8H968ZM1616 592h112v8H1616ZM64 600h112v8H64ZM624 600h192v8H624ZM976 600h192v8H976ZM1616 600h112v8H1616ZM64 608h112v8H64ZM624 608h184v8H624ZM984 608h184v8H984ZM1616 608h112v8H1616ZM64 616h112v8H64ZM616 616h184v8H616ZM992 616h184v8H992ZM1616 616h112v8H1616ZM0 624h448v8H0ZM616 624h184v8H616ZM992 624h184v8H992ZM1344 624h448v8H1344ZM0 632h448v8H0ZM616 632h176v8H616ZM1000 632h176v8H1000ZM1344 632h448v8H1344ZM0 640h456v8H0ZM616 640h176v8H616ZM1000 640h176v8H1000ZM1336 640h456v8H1336ZM0 648h456v8H0ZM616 648h168v8H616ZM1008 648h168v8H1008ZM1336 648h456v8H1336ZM0 656h464v8H0ZM616 656h168v8H616ZM1008 656h168v8H1008ZM1328 656h464v8H1328ZM0 664h472v8H0ZM616 664h168v8H616ZM1008 664h168v8H1008ZM1312 664h480v8H1312ZM0 672h488v8H0ZM616 672h168v8H616ZM1008 672h168v8H1008ZM1304 672h488v8H1304ZM0 680h496v8H0ZM624 680h160v8H624ZM1008 680h160v8H1008ZM1296 680h496v8H1296ZM0 688h496v8H0ZM624 688h160v8H624ZM1008 688h160v8H1008ZM1296 688h496v8H1296ZM0 696h488v8H0ZM624 696h160v8H624ZM1008 696h160v8H1008ZM1296 696h496v8H1296ZM0 704h488v8H0ZM624 704h160v8H624ZM1008 704h160v8H1008ZM1304 704h488v8H1304ZM0 712h488v8H0ZM632 712h160v8H632ZM1000 712h160v8H1000ZM1304 712h488v8H1304ZM0 720h488v8H0ZM632 720h160v8H632ZM1000 720h160v8H1000ZM1304 720h488v8H1304ZM0 728h120v8H0ZM168 728h632v8H168ZM992 728h632v8H992ZM1672 728h120v8H1672ZM0 736h96v8H0ZM192 736h608v8H192ZM992 736h608v8H992ZM1696 736h96v8H1696ZM0 744h88v8H0ZM200 744h608v8H200ZM984 744h608v8H984ZM1704 744h88v8H1704ZM0 752h80v8H0ZM208 752h608v8H208ZM976 752h608v8H976ZM1712 752h80v8H1712ZM0 760h72v8H0ZM216 760h608v8H216ZM968 760h608v8H968ZM1720 760h72v8H1720ZM0 768h64v8H0ZM224 768h608v8H224ZM960 768h608v8H960ZM1728 768h64v8H1728ZM0 776h56v8H0ZM232 776h616v8H232ZM944 776h616v8H944ZM1736 776h56v8H1736ZM0 784h56v8H0ZM232 784h632v8H232ZM928 784h632v8H928ZM1736 784h56v8H1736ZM0 792h56v8H0ZM232 792h1328v8H232ZM1736 792h56v8H1736ZM0 800h48v8H0ZM240 800h1312v8H240ZM1744 800h48v8H1744ZM0 808h48v8H0ZM240 808h1312v8H240ZM1744 808h48v8H1744ZM0 816h48v8H0ZM240 816h224v8H240ZM472 816h1080v8H472ZM1744 816h48v8H1744ZM0 824h48v8H0ZM240 824h224v8H240ZM472 824h264v8H472ZM752 824h288v8H752ZM1056 824h264v8H1056ZM1328 824h224v8H1328ZM1744 824h48v8H1744ZM0 832h48v8H0ZM240 832h224v8H240ZM472 832h264v8H472ZM776 832h240v8H776ZM1056 832h264v8H1056ZM1328 832h224v8H1328ZM1744 832h48v8H1744ZM0 840h48v8H0ZM240 840h224v8H240ZM672 840h64v8H672ZM800 840h192v8H800ZM1056 840h64v8H1056ZM1328 840h224v8H1328ZM1744 840h48v8H1744ZM0 848h56v8H0ZM232 848h224v8H232ZM672 848h64v8H672ZM840 848h112v8H840ZM1056 848h64v8H1056ZM1336 848h224v8H1336ZM1736 848h56v8H1736ZM0 856h56v8H0ZM232 856h224v8H232ZM672 856h64v8H672ZM1056 856h64v8H1056ZM1336 856h224v8H1336ZM1736 856h56v8H1736ZM0 864h56v8H0ZM232 864h216v8H232ZM672 864h64v8H672ZM1056 864h64v8H1056ZM1344 864h216v8H1344ZM1736 864h56v8H1736ZM0 872h48v8H0ZM224 872h224v8H224ZM672 872h64v8H672ZM1056 872h64v8H1056ZM1344 872h224v8H1344ZM1752 872h40v8H1752ZM0 880h32v8H0ZM216 880h224v8H216ZM672 880h64v8H672ZM1056 880h64v8H1056ZM1352 880h224v8H1352ZM1768 880h24v8H1768ZM0 888h24v8H0ZM208 888h232v8H208ZM672 888h64v8H672ZM1056 888h64v8H1056ZM1352 888h232v8H1352ZM1776 888h16v8H1776ZM0 896h24v8H0ZM200 896h232v8H200ZM672 896h64v8H672ZM1056 896h64v8H1056ZM1360 896h232v8H1360ZM1776 896h16v8H1776ZM0 904h16v8H0ZM192 904h240v8H192ZM672 904h64v8H672ZM1056 904h64v8H1056ZM1360 904h240v8H1360ZM1784 904h8v8H1784ZM0 912h16v8H0ZM168 912h272v8H168ZM672 912h64v8H672ZM1056 912h64v8H1056ZM1352 912h272v8H1352ZM1784 912h8v8H1784ZM0 920h8v8H0ZM168 920h272v8H168ZM672 920h64v8H672ZM1056 920h64v8H1056ZM1352 920h280v8H1352ZM0 928h8v8H0ZM168 928h280v8H168ZM672 928h64v8H672ZM1056 928h64v8H1056ZM1344 928h288v8H1344ZM0 936h8v8H0ZM168 936h280v8H168ZM672 936h64v8H672ZM1056 936h64v8H1056ZM1344 936h288v8H1344ZM0 944h8v8H0ZM168 944h288v8H168ZM672 944h64v8H672ZM1056 944h64v8H1056ZM1336 944h296v8H1336ZM0 952h8v8H0ZM168 952h288v8H168ZM1336 952h296v8H1336ZM0 960h8v8H0ZM168 960h296v8H168ZM1328 960h304v8H1328ZM0 968h16v8H0ZM160 968h312v8H160ZM1320 968h320v8H1320ZM1784 968h8v8H1784ZM0 976h16v8H0ZM160 976h312v8H160ZM1320 976h320v8H1320ZM1784 976h8v8H1784ZM0 984h24v8H0ZM152 984h328v8H152ZM1312 984h336v8H1312ZM1776 984h16v8H1776ZM0 992h24v8H0ZM152 992h328v8H152ZM1312 992h336v8H1312ZM1776 992h16v8H1776ZM0 1000h32v8H0ZM144 1000h344v8H144ZM1304 1000h352v8H1304ZM1768 1000h24v8H1768ZM0 1008h48v8H0ZM128 1008h360v8H128ZM1304 1008h368v8H1304ZM1752 1008h40v8H1752ZM0 1016h64v8H0ZM112 1016h384v8H112ZM1296 1016h392v8H1296ZM1736 1016h56v8H1736Z"/></clipPath></defs><rect x="-3000" y="-3000" width="8000" height="8000" fill="#bcdfce"/><circle cx="1390" cy="160" r="71" fill="#f9e9ad"/><circle cx="1405" cy="147" r="55" fill="#fff0bd"/><g transform="translate(-90 90) scale(0.75)"><path d="M0 40Q-30 18 14 10Q8-20 46-18Q66-45 98-15Q141-27 149 3Q198 4 182 34Q214 57 167 60H20Q-8 60 0 40Z" fill="#ecf0cf"/><path d="M-2 41Q70 52 163 40Q200 53 168 60H20Q-8 60-2 41Z" fill="#d8e6bf"/></g><g transform="translate(220 169) scale(0.95)"><path d="M0 40Q-30 18 14 10Q8-20 46-18Q66-45 98-15Q141-27 149 3Q198 4 182 34Q214 57 167 60H20Q-8 60 0 40Z" fill="#ecf0cf"/><path d="M-2 41Q70 52 163 40Q200 53 168 60H20Q-8 60-2 41Z" fill="#d8e6bf"/></g><g transform="translate(530 248) scale(1.15)"><path d="M0 40Q-30 18 14 10Q8-20 46-18Q66-45 98-15Q141-27 149 3Q198 4 182 34Q214 57 167 60H20Q-8 60 0 40Z" fill="#ecf0cf"/><path d="M-2 41Q70 52 163 40Q200 53 168 60H20Q-8 60-2 41Z" fill="#d8e6bf"/></g><g transform="translate(840 97) scale(0.75)"><path d="M0 40Q-30 18 14 10Q8-20 46-18Q66-45 98-15Q141-27 149 3Q198 4 182 34Q214 57 167 60H20Q-8 60 0 40Z" fill="#ecf0cf"/><path d="M-2 41Q70 52 163 40Q200 53 168 60H20Q-8 60-2 41Z" fill="#d8e6bf"/></g><g transform="translate(1150 176) scale(0.95)"><path d="M0 40Q-30 18 14 10Q8-20 46-18Q66-45 98-15Q141-27 149 3Q198 4 182 34Q214 57 167 60H20Q-8 60 0 40Z" fill="#ecf0cf"/><path d="M-2 41Q70 52 163 40Q200 53 168 60H20Q-8 60-2 41Z" fill="#d8e6bf"/></g><g transform="translate(1460 255) scale(1.15)"><path d="M0 40Q-30 18 14 10Q8-20 46-18Q66-45 98-15Q141-27 149 3Q198 4 182 34Q214 57 167 60H20Q-8 60 0 40Z" fill="#ecf0cf"/><path d="M-2 41Q70 52 163 40Q200 53 168 60H20Q-8 60-2 41Z" fill="#d8e6bf"/></g><g transform="translate(1770 104) scale(0.75)"><path d="M0 40Q-30 18 14 10Q8-20 46-18Q66-45 98-15Q141-27 149 3Q198 4 182 34Q214 57 167 60H20Q-8 60 0 40Z" fill="#ecf0cf"/><path d="M-2 41Q70 52 163 40Q200 53 168 60H20Q-8 60-2 41Z" fill="#d8e6bf"/></g><path d="M-100 850L180 330L300 507L545 250L846 642L1110 324L1450 642L1660 364L1910 828V1100H-100Z" fill="#99c6b5"/><path d="M180 330L143 710L-100 850ZM545 250L461 806L300 507ZM1110 324L1030 830L846 642ZM1660 364L1610 818L1450 642Z" fill="#86b7a7"/><path d="M124 433L180 330L255 443L212 425L184 450L160 417ZM461 339L545 250L626 355L578 341L549 365L520 329ZM1045 402L1110 324L1177 407L1130 395L1103 419L1081 391Z" fill="#e0e9c9"/><path d="M-60 827Q90 577 240 712L345 775Q453 649 586 729L761 851Q899 657 1064 781Q1235 607 1394 745Q1580 673 1850 791V1100H-60Z" fill="#7eae9d"/><path d="M-60 956Q181 728 359 850Q450 755 658 941Q811 789 986 869Q1231 712 1416 895Q1592 746 1850 929V1120H-60Z" fill="#679584"/><g fill="#588b7e"><path d="M-8 874l32-84 32 84Z"/><path d="M0 837l24-65 24 65Z"/></g><g fill="#588b7e"><path d="M160 905l32-84 32 84Z"/><path d="M168 868l24-65 24 65Z"/></g><g fill="#588b7e"><path d="M328 936l32-84 32 84Z"/><path d="M336 899l24-65 24 65Z"/></g><g fill="#588b7e"><path d="M496 967l32-84 32 84Z"/><path d="M504 930l24-65 24 65Z"/></g><g fill="#588b7e"><path d="M664 901l32-84 32 84Z"/><path d="M672 864l24-65 24 65Z"/></g><g fill="#588b7e"><path d="M832 932l32-84 32 84Z"/><path d="M840 895l24-65 24 65Z"/></g><g fill="#588b7e"><path d="M1000 963l32-84 32 84Z"/><path d="M1008 926l24-65 24 65Z"/></g><g fill="#588b7e"><path d="M1168 897l32-84 32 84Z"/><path d="M1176 860l24-65 24 65Z"/></g><g fill="#588b7e"><path d="M1336 928l32-84 32 84Z"/><path d="M1344 891l24-65 24 65Z"/></g><g fill="#588b7e"><path d="M1504 959l32-84 32 84Z"/><path d="M1512 922l24-65 24 65Z"/></g><g fill="#588b7e"><path d="M1672 893l32-84 32 84Z"/><path d="M1680 856l24-65 24 65Z"/></g><g fill="#588b7e"><path d="M1840 924l32-84 32 84Z"/><path d="M1848 887l24-65 24 65Z"/></g><path d="M808 256h176v8H808ZM784 264h224v8H784ZM768 272h256v8H768ZM752 280h288v8H752ZM744 288h304v8H744ZM744 296h304v8H744ZM744 304h304v8H744ZM752 312h288v8H752ZM768 320h256v8H768ZM784 328h224v8H784ZM808 336h176v8H808ZM584 440h208v8H584ZM840 440h112v8H840ZM1000 440h208v8H1000ZM576 448h640v8H576ZM576 456h640v8H576ZM584 464h624v8H584ZM584 472h624v8H584ZM608 480h600v8H608ZM656 488h488v8H656ZM680 496h456v8H680ZM424 504h112v8H424ZM688 504h416v8H688ZM1112 504h16v8H1112ZM1256 504h112v8H1256ZM416 512h128v8H416ZM680 512h432v8H680ZM1248 512h128v8H1248ZM472 520h24v8H472ZM672 520h448v8H672ZM1304 520h24v8H1304ZM664 528h464v8H664ZM656 536h480v8H656ZM1616 536h112v8H1616ZM64 544h112v8H64ZM648 544h496v8H648ZM1616 544h112v8H1616ZM64 552h112v8H64ZM648 552h496v8H648ZM1616 552h112v8H1616ZM64 560h112v8H64ZM640 560h512v8H640ZM1616 560h112v8H1616ZM64 568h112v8H64ZM632 568h232v8H632ZM928 568h232v8H928ZM1616 568h112v8H1616ZM64 576h112v8H64ZM632 576h216v8H632ZM944 576h216v8H944ZM1616 576h112v8H1616ZM64 584h112v8H64ZM624 584h208v8H624ZM960 584h208v8H960ZM1616 584h112v8H1616ZM64 592h112v8H64ZM624 592h200v8H624ZM968 592h200v8H968ZM1616 592h112v8H1616ZM64 600h112v8H64ZM624 600h192v8H624ZM976 600h192v8H976ZM1616 600h112v8H1616ZM64 608h112v8H64ZM624 608h184v8H624ZM984 608h184v8H984ZM1616 608h112v8H1616ZM64 616h112v8H64ZM616 616h184v8H616ZM992 616h184v8H992ZM1616 616h112v8H1616ZM0 624h448v8H0ZM616 624h184v8H616ZM992 624h184v8H992ZM1344 624h448v8H1344ZM0 632h448v8H0ZM616 632h176v8H616ZM1000 632h176v8H1000ZM1344 632h448v8H1344ZM0 640h456v8H0ZM616 640h176v8H616ZM1000 640h176v8H1000ZM1336 640h456v8H1336ZM0 648h456v8H0ZM616 648h168v8H616ZM1008 648h168v8H1008ZM1336 648h456v8H1336ZM0 656h464v8H0ZM616 656h168v8H616ZM1008 656h168v8H1008ZM1328 656h464v8H1328ZM0 664h472v8H0ZM616 664h168v8H616ZM1008 664h168v8H1008ZM1312 664h480v8H1312ZM0 672h488v8H0ZM616 672h168v8H616ZM1008 672h168v8H1008ZM1304 672h488v8H1304ZM0 680h496v8H0ZM624 680h160v8H624ZM1008 680h160v8H1008ZM1296 680h496v8H1296ZM0 688h496v8H0ZM624 688h160v8H624ZM1008 688h160v8H1008ZM1296 688h496v8H1296ZM0 696h488v8H0ZM624 696h160v8H624ZM1008 696h160v8H1008ZM1296 696h496v8H1296ZM0 704h488v8H0ZM624 704h160v8H624ZM1008 704h160v8H1008ZM1304 704h488v8H1304ZM0 712h488v8H0ZM632 712h160v8H632ZM1000 712h160v8H1000ZM1304 712h488v8H1304ZM0 720h488v8H0ZM632 720h160v8H632ZM1000 720h160v8H1000ZM1304 720h488v8H1304ZM0 728h120v8H0ZM168 728h632v8H168ZM992 728h632v8H992ZM1672 728h120v8H1672ZM0 736h96v8H0ZM192 736h608v8H192ZM992 736h608v8H992ZM1696 736h96v8H1696ZM0 744h88v8H0ZM200 744h608v8H200ZM984 744h608v8H984ZM1704 744h88v8H1704ZM0 752h80v8H0ZM208 752h608v8H208ZM976 752h608v8H976ZM1712 752h80v8H1712ZM0 760h72v8H0ZM216 760h608v8H216ZM968 760h608v8H968ZM1720 760h72v8H1720ZM0 768h64v8H0ZM224 768h608v8H224ZM960 768h608v8H960ZM1728 768h64v8H1728ZM0 776h56v8H0ZM232 776h616v8H232ZM944 776h616v8H944ZM1736 776h56v8H1736ZM0 784h56v8H0ZM232 784h632v8H232ZM928 784h632v8H928ZM1736 784h56v8H1736ZM0 792h56v8H0ZM232 792h1328v8H232ZM1736 792h56v8H1736ZM0 800h48v8H0ZM240 800h1312v8H240ZM1744 800h48v8H1744ZM0 808h48v8H0ZM240 808h1312v8H240ZM1744 808h48v8H1744ZM0 816h48v8H0ZM240 816h224v8H240ZM472 816h1080v8H472ZM1744 816h48v8H1744ZM0 824h48v8H0ZM240 824h224v8H240ZM472 824h264v8H472ZM752 824h288v8H752ZM1056 824h264v8H1056ZM1328 824h224v8H1328ZM1744 824h48v8H1744ZM0 832h48v8H0ZM240 832h224v8H240ZM472 832h264v8H472ZM776 832h240v8H776ZM1056 832h264v8H1056ZM1328 832h224v8H1328ZM1744 832h48v8H1744ZM0 840h48v8H0ZM240 840h224v8H240ZM672 840h64v8H672ZM800 840h192v8H800ZM1056 840h64v8H1056ZM1328 840h224v8H1328ZM1744 840h48v8H1744ZM0 848h56v8H0ZM232 848h224v8H232ZM672 848h64v8H672ZM840 848h112v8H840ZM1056 848h64v8H1056ZM1336 848h224v8H1336ZM1736 848h56v8H1736ZM0 856h56v8H0ZM232 856h224v8H232ZM672 856h64v8H672ZM1056 856h64v8H1056ZM1336 856h224v8H1336ZM1736 856h56v8H1736ZM0 864h56v8H0ZM232 864h216v8H232ZM672 864h64v8H672ZM1056 864h64v8H1056ZM1344 864h216v8H1344ZM1736 864h56v8H1736ZM0 872h48v8H0ZM224 872h224v8H224ZM672 872h64v8H672ZM1056 872h64v8H1056ZM1344 872h224v8H1344ZM1752 872h40v8H1752ZM0 880h32v8H0ZM216 880h224v8H216ZM672 880h64v8H672ZM1056 880h64v8H1056ZM1352 880h224v8H1352ZM1768 880h24v8H1768ZM0 888h24v8H0ZM208 888h232v8H208ZM672 888h64v8H672ZM1056 888h64v8H1056ZM1352 888h232v8H1352ZM1776 888h16v8H1776ZM0 896h24v8H0ZM200 896h232v8H200ZM672 896h64v8H672ZM1056 896h64v8H1056ZM1360 896h232v8H1360ZM1776 896h16v8H1776ZM0 904h16v8H0ZM192 904h240v8H192ZM672 904h64v8H672ZM1056 904h64v8H1056ZM1360 904h240v8H1360ZM1784 904h8v8H1784ZM0 912h16v8H0ZM168 912h272v8H168ZM672 912h64v8H672ZM1056 912h64v8H1056ZM1352 912h272v8H1352ZM1784 912h8v8H1784ZM0 920h8v8H0ZM168 920h272v8H168ZM672 920h64v8H672ZM1056 920h64v8H1056ZM1352 920h280v8H1352ZM0 928h8v8H0ZM168 928h280v8H168ZM672 928h64v8H672ZM1056 928h64v8H1056ZM1344 928h288v8H1344ZM0 936h8v8H0ZM168 936h280v8H168ZM672 936h64v8H672ZM1056 936h64v8H1056ZM1344 936h288v8H1344ZM0 944h8v8H0ZM168 944h288v8H168ZM672 944h64v8H672ZM1056 944h64v8H1056ZM1336 944h296v8H1336ZM0 952h8v8H0ZM168 952h288v8H168ZM1336 952h296v8H1336ZM0 960h8v8H0ZM168 960h296v8H168ZM1328 960h304v8H1328ZM0 968h16v8H0ZM160 968h312v8H160ZM1320 968h320v8H1320ZM1784 968h8v8H1784ZM0 976h16v8H0ZM160 976h312v8H160ZM1320 976h320v8H1320ZM1784 976h8v8H1784ZM0 984h24v8H0ZM152 984h328v8H152ZM1312 984h336v8H1312ZM1776 984h16v8H1776ZM0 992h24v8H0ZM152 992h328v8H152ZM1312 992h336v8H1312ZM1776 992h16v8H1776ZM0 1000h32v8H0ZM144 1000h344v8H144ZM1304 1000h352v8H1304ZM1768 1000h24v8H1768ZM0 1008h48v8H0ZM128 1008h360v8H128ZM1304 1008h368v8H1304ZM1752 1008h40v8H1752ZM0 1016h64v8H0ZM112 1016h384v8H112ZM1296 1016h392v8H1296ZM1736 1016h56v8H1736Z" fill="#715044"/><g clip-path="url(#land)"><path d="M0 340Q400 260 896 355T1792 320v28Q1300 345 896 386T0 368Z" fill="#8d6650"/><path d="M0 440Q400 360 896 455T1792 420v28Q1300 445 896 486T0 468Z" fill="#8d6650"/><path d="M0 540Q400 460 896 555T1792 520v28Q1300 545 896 586T0 568Z" fill="#8d6650"/><path d="M0 640Q400 560 896 655T1792 620v28Q1300 645 896 686T0 668Z" fill="#8d6650"/><path d="M0 740Q400 660 896 755T1792 720v28Q1300 745 896 786T0 768Z" fill="#8d6650"/><path d="M0 840Q400 760 896 855T1792 820v28Q1300 845 896 886T0 868Z" fill="#8d6650"/><path d="M0 940Q400 860 896 955T1792 920v28Q1300 945 896 986T0 968Z" fill="#8d6650"/><path d="M0 1040Q400 960 896 1055T1792 1020v28Q1300 1045 896 1086T0 1068Z" fill="#8d6650"/></g><path d="M808 256h8v6h-8ZM816 256h8v6h-8ZM824 256h8v6h-8ZM832 256h8v6h-8ZM840 256h8v6h-8ZM848 256h8v6h-8ZM856 256h8v6h-8ZM864 256h8v6h-8ZM872 256h8v6h-8ZM880 256h8v6h-8ZM888 256h8v6h-8ZM896 256h8v6h-8ZM904 256h8v6h-8ZM912 256h8v6h-8ZM920 256h8v6h-8ZM928 256h8v6h-8ZM936 256h8v6h-8ZM944 256h8v6h-8ZM952 256h8v6h-8ZM960 256h8v6h-8ZM968 256h8v6h-8ZM976 256h8v6h-8ZM784 264h8v6h-8ZM792 264h8v6h-8ZM800 264h8v6h-8ZM984 264h8v6h-8ZM992 264h8v6h-8ZM1000 264h8v6h-8ZM768 272h8v6h-8ZM776 272h8v6h-8ZM1008 272h8v6h-8ZM1016 272h8v6h-8ZM752 280h8v6h-8ZM760 280h8v6h-8ZM1024 280h8v6h-8ZM1032 280h8v6h-8ZM744 288h8v6h-8ZM1040 288h8v6h-8ZM584 440h8v6h-8ZM592 440h8v6h-8ZM600 440h8v6h-8ZM608 440h8v6h-8ZM616 440h8v6h-8ZM624 440h8v6h-8ZM632 440h8v6h-8ZM640 440h8v6h-8ZM648 440h8v6h-8ZM656 440h8v6h-8ZM664 440h8v6h-8ZM672 440h8v6h-8ZM680 440h8v6h-8ZM688 440h8v6h-8ZM696 440h8v6h-8ZM704 440h8v6h-8ZM712 440h8v6h-8ZM720 440h8v6h-8ZM728 440h8v6h-8ZM736 440h8v6h-8ZM744 440h8v6h-8ZM752 440h8v6h-8ZM760 440h8v6h-8ZM768 440h8v6h-8ZM776 440h8v6h-8ZM784 440h8v6h-8ZM840 440h8v6h-8ZM848 440h8v6h-8ZM856 440h8v6h-8ZM864 440h8v6h-8ZM872 440h8v6h-8ZM880 440h8v6h-8ZM888 440h8v6h-8ZM896 440h8v6h-8ZM904 440h8v6h-8ZM912 440h8v6h-8ZM920 440h8v6h-8ZM928 440h8v6h-8ZM936 440h8v6h-8ZM944 440h8v6h-8ZM1000 440h8v6h-8ZM1008 440h8v6h-8ZM1016 440h8v6h-8ZM1024 440h8v6h-8ZM1032 440h8v6h-8ZM1040 440h8v6h-8ZM1048 440h8v6h-8ZM1056 440h8v6h-8ZM1064 440h8v6h-8ZM1072 440h8v6h-8ZM1080 440h8v6h-8ZM1088 440h8v6h-8ZM1096 440h8v6h-8ZM1104 440h8v6h-8ZM1112 440h8v6h-8ZM1120 440h8v6h-8ZM1128 440h8v6h-8ZM1136 440h8v6h-8ZM1144 440h8v6h-8ZM1152 440h8v6h-8ZM1160 440h8v6h-8ZM1168 440h8v6h-8ZM1176 440h8v6h-8ZM1184 440h8v6h-8ZM1192 440h8v6h-8ZM1200 440h8v6h-8ZM576 448h8v6h-8ZM792 448h8v6h-8ZM800 448h8v6h-8ZM808 448h8v6h-8ZM816 448h8v6h-8ZM824 448h8v6h-8ZM832 448h8v6h-8ZM952 448h8v6h-8ZM960 448h8v6h-8ZM968 448h8v6h-8ZM976 448h8v6h-8ZM984 448h8v6h-8ZM992 448h8v6h-8ZM1208 448h8v6h-8ZM424 504h8v6h-8ZM432 504h8v6h-8ZM440 504h8v6h-8ZM448 504h8v6h-8ZM456 504h8v6h-8ZM464 504h8v6h-8ZM472 504h8v6h-8ZM480 504h8v6h-8ZM488 504h8v6h-8ZM496 504h8v6h-8ZM504 504h8v6h-8ZM512 504h8v6h-8ZM520 504h8v6h-8ZM528 504h8v6h-8ZM1256 504h8v6h-8ZM1264 504h8v6h-8ZM1272 504h8v6h-8ZM1280 504h8v6h-8ZM1288 504h8v6h-8ZM1296 504h8v6h-8ZM1304 504h8v6h-8ZM1312 504h8v6h-8ZM1320 504h8v6h-8ZM1328 504h8v6h-8ZM1336 504h8v6h-8ZM1344 504h8v6h-8ZM1352 504h8v6h-8ZM1360 504h8v6h-8ZM416 512h8v6h-8ZM536 512h8v6h-8ZM680 512h8v6h-8ZM1104 512h8v6h-8ZM1248 512h8v6h-8ZM1368 512h8v6h-8ZM672 520h8v6h-8ZM1112 520h8v6h-8ZM664 528h8v6h-8ZM1120 528h8v6h-8ZM656 536h8v6h-8ZM1128 536h8v6h-8ZM1616 536h8v6h-8ZM1624 536h8v6h-8ZM1632 536h8v6h-8ZM1640 536h8v6h-8ZM1648 536h8v6h-8ZM1656 536h8v6h-8ZM1664 536h8v6h-8ZM1672 536h8v6h-8ZM1680 536h8v6h-8ZM1688 536h8v6h-8ZM1696 536h8v6h-8ZM1704 536h8v6h-8ZM1712 536h8v6h-8ZM1720 536h8v6h-8ZM64 544h8v6h-8ZM72 544h8v6h-8ZM80 544h8v6h-8ZM88 544h8v6h-8ZM96 544h8v6h-8ZM104 544h8v6h-8ZM112 544h8v6h-8ZM120 544h8v6h-8ZM128 544h8v6h-8ZM136 544h8v6h-8ZM144 544h8v6h-8ZM152 544h8v6h-8ZM160 544h8v6h-8ZM168 544h8v6h-8ZM648 544h8v6h-8ZM1136 544h8v6h-8ZM640 560h8v6h-8ZM1144 560h8v6h-8ZM632 568h8v6h-8ZM1152 568h8v6h-8ZM624 584h8v6h-8ZM1160 584h8v6h-8ZM616 616h8v6h-8ZM1168 616h8v6h-8ZM0 624h8v6h-8ZM8 624h8v6h-8ZM16 624h8v6h-8ZM24 624h8v6h-8ZM32 624h8v6h-8ZM40 624h8v6h-8ZM48 624h8v6h-8ZM56 624h8v6h-8ZM176 624h8v6h-8ZM184 624h8v6h-8ZM192 624h8v6h-8ZM200 624h8v6h-8ZM208 624h8v6h-8ZM216 624h8v6h-8ZM224 624h8v6h-8ZM232 624h8v6h-8ZM240 624h8v6h-8ZM248 624h8v6h-8ZM256 624h8v6h-8ZM264 624h8v6h-8ZM272 624h8v6h-8ZM280 624h8v6h-8ZM288 624h8v6h-8ZM296 624h8v6h-8ZM304 624h8v6h-8ZM312 624h8v6h-8ZM320 624h8v6h-8ZM328 624h8v6h-8ZM336 624h8v6h-8ZM344 624h8v6h-8ZM352 624h8v6h-8ZM360 624h8v6h-8ZM368 624h8v6h-8ZM376 624h8v6h-8ZM384 624h8v6h-8ZM392 624h8v6h-8ZM400 624h8v6h-8ZM408 624h8v6h-8ZM416 624h8v6h-8ZM424 624h8v6h-8ZM432 624h8v6h-8ZM440 624h8v6h-8ZM1344 624h8v6h-8ZM1352 624h8v6h-8ZM1360 624h8v6h-8ZM1368 624h8v6h-8ZM1376 624h8v6h-8ZM1384 624h8v6h-8ZM1392 624h8v6h-8ZM1400 624h8v6h-8ZM1408 624h8v6h-8ZM1416 624h8v6h-8ZM1424 624h8v6h-8ZM1432 624h8v6h-8ZM1440 624h8v6h-8ZM1448 624h8v6h-8ZM1456 624h8v6h-8ZM1464 624h8v6h-8ZM1472 624h8v6h-8ZM1480 624h8v6h-8ZM1488 624h8v6h-8ZM1496 624h8v6h-8ZM1504 624h8v6h-8ZM1512 624h8v6h-8ZM1520 624h8v6h-8ZM1528 624h8v6h-8ZM1536 624h8v6h-8ZM1544 624h8v6h-8ZM1552 624h8v6h-8ZM1560 624h8v6h-8ZM1568 624h8v6h-8ZM1576 624h8v6h-8ZM1584 624h8v6h-8ZM1592 624h8v6h-8ZM1600 624h8v6h-8ZM1608 624h8v6h-8ZM1728 624h8v6h-8ZM1736 624h8v6h-8ZM1744 624h8v6h-8ZM1752 624h8v6h-8ZM1760 624h8v6h-8ZM1768 624h8v6h-8ZM1776 624h8v6h-8ZM1784 624h8v6h-8ZM448 640h8v6h-8ZM1336 640h8v6h-8ZM456 656h8v6h-8ZM1328 656h8v6h-8ZM464 664h8v6h-8ZM1312 664h8v6h-8ZM1320 664h8v6h-8ZM472 672h8v6h-8ZM480 672h8v6h-8ZM1304 672h8v6h-8ZM488 680h8v6h-8ZM1296 680h8v6h-8ZM784 712h8v6h-8ZM1000 712h8v6h-8ZM488 728h8v6h-8ZM496 728h8v6h-8ZM504 728h8v6h-8ZM512 728h8v6h-8ZM520 728h8v6h-8ZM528 728h8v6h-8ZM536 728h8v6h-8ZM544 728h8v6h-8ZM552 728h8v6h-8ZM560 728h8v6h-8ZM568 728h8v6h-8ZM576 728h8v6h-8ZM584 728h8v6h-8ZM592 728h8v6h-8ZM600 728h8v6h-8ZM608 728h8v6h-8ZM616 728h8v6h-8ZM624 728h8v6h-8ZM792 728h8v6h-8ZM992 728h8v6h-8ZM1160 728h8v6h-8ZM1168 728h8v6h-8ZM1176 728h8v6h-8ZM1184 728h8v6h-8ZM1192 728h8v6h-8ZM1200 728h8v6h-8ZM1208 728h8v6h-8ZM1216 728h8v6h-8ZM1224 728h8v6h-8ZM1232 728h8v6h-8ZM1240 728h8v6h-8ZM1248 728h8v6h-8ZM1256 728h8v6h-8ZM1264 728h8v6h-8ZM1272 728h8v6h-8ZM1280 728h8v6h-8ZM1288 728h8v6h-8ZM1296 728h8v6h-8ZM800 744h8v6h-8ZM984 744h8v6h-8ZM808 752h8v6h-8ZM976 752h8v6h-8ZM816 760h8v6h-8ZM968 760h8v6h-8ZM824 768h8v6h-8ZM960 768h8v6h-8ZM832 776h8v6h-8ZM840 776h8v6h-8ZM944 776h8v6h-8ZM952 776h8v6h-8ZM848 784h8v6h-8ZM856 784h8v6h-8ZM928 784h8v6h-8ZM936 784h8v6h-8ZM864 792h8v6h-8ZM872 792h8v6h-8ZM880 792h8v6h-8ZM888 792h8v6h-8ZM896 792h8v6h-8ZM904 792h8v6h-8ZM912 792h8v6h-8ZM920 792h8v6h-8ZM48 848h8v6h-8ZM232 848h8v6h-8ZM1552 848h8v6h-8ZM1736 848h8v6h-8ZM224 872h8v6h-8ZM1560 872h8v6h-8ZM216 880h8v6h-8ZM1568 880h8v6h-8ZM208 888h8v6h-8ZM1576 888h8v6h-8ZM200 896h8v6h-8ZM1584 896h8v6h-8ZM192 904h8v6h-8ZM1592 904h8v6h-8ZM168 912h8v6h-8ZM176 912h8v6h-8ZM184 912h8v6h-8ZM432 912h8v6h-8ZM1352 912h8v6h-8ZM1600 912h8v6h-8ZM1608 912h8v6h-8ZM1616 912h8v6h-8ZM1624 920h8v6h-8ZM440 928h8v6h-8ZM1344 928h8v6h-8ZM448 944h8v6h-8ZM1336 944h8v6h-8ZM456 960h8v6h-8ZM1328 960h8v6h-8ZM8 968h8v6h-8ZM160 968h8v6h-8ZM464 968h8v6h-8ZM1320 968h8v6h-8ZM1632 968h8v6h-8ZM1784 968h8v6h-8ZM16 984h8v6h-8ZM152 984h8v6h-8ZM472 984h8v6h-8ZM1312 984h8v6h-8ZM1640 984h8v6h-8ZM1776 984h8v6h-8ZM24 1000h8v6h-8ZM144 1000h8v6h-8ZM480 1000h8v6h-8ZM1304 1000h8v6h-8ZM1648 1000h8v6h-8ZM1768 1000h8v6h-8ZM32 1008h8v6h-8ZM40 1008h8v6h-8ZM128 1008h8v6h-8ZM136 1008h8v6h-8ZM1656 1008h8v6h-8ZM1664 1008h8v6h-8ZM1752 1008h8v6h-8ZM1760 1008h8v6h-8ZM48 1016h8v6h-8ZM56 1016h8v6h-8ZM112 1016h8v6h-8ZM120 1016h8v6h-8ZM488 1016h8v6h-8ZM1296 1016h8v6h-8ZM1672 1016h8v6h-8ZM1680 1016h8v6h-8ZM1736 1016h8v6h-8ZM1744 1016h8v6h-8Z" fill="#9abc68"/></svg>