<svg xmlns="http://www.w3.org/2000/svg" width="720" height="620" viewBox="0 0 720 620"><title>Cuy and Llama friendly duel</title><rect width="720" height="620" fill="#b6e3df"/><circle cx="570" cy="105" r="55" fill="#fff4c4"/><path d="M-50 420L135 140L320 399L451 181L750 430V640H-50Z" fill="#87b6af"/><path d="M96 200L135 140L175 200L144 187L130 206L115 188Z" fill="#eef1da"/><path d="M-50 452L150 326L283 399L506 309L750 405V640H-50Z" fill="#6f9e89"/><path d="M0 473Q190 415 360 487T720 459V620H0Z" fill="#7b594d"/><path d="M0 473Q190 415 360 487T720 459" fill="none" stroke="#91b46b" stroke-width="17"/><g transform="translate(180 420) scale(2.6)"><g transform="translate(0 0)"></g><g transform="translate(-10 10) rotate(0)"><g transform="translate(0 0)"><g stroke="#3b2b38" stroke-width="2.3" stroke-linejoin="round" stroke-linecap="round"><path fill="#a45e47" d="M-5-5Q0-8 5-4L4 8Q0 11-4 8Z"/></g></g><g transform="translate(0 7)"><g stroke="#3b2b38" stroke-width="2.3" stroke-linejoin="round" stroke-linecap="round"><path fill="#a45e47" d="M-5-1Q-2-5 4-3Q10-2 11 3Q10 6 6 6H-5Q-8 4-5-1Z"/><path fill="none" stroke="#3b2b38" stroke-width="1.2" d="M3 2v3M7 2v3"/></g></g></g><g transform="translate(8 10) rotate(0)"><g transform="translate(0 0)"><g stroke="#3b2b38" stroke-width="2.3" stroke-linejoin="round" stroke-linecap="round"><path fill="#d88b51" d="M-5-5Q0-8 5-4L4 8Q0 11-4 8Z"/></g></g><g transform="translate(0 7)"><g stroke="#3b2b38" stroke-width="2.3" stroke-linejoin="round" stroke-linecap="round"><path fill="#d88b51" d="M-5-1Q-2-5 4-3Q10-2 11 3Q10 6 6 6H-5Q-8 4-5-1Z"/><path fill="none" stroke="#3b2b38" stroke-width="1.2" d="M3 2v3M7 2v3"/></g></g></g><g transform="translate(-6 -2) rotate(75.81664396612778)"><g transform="scale(0.8469695976758955 1)"><g transform="translate(0 0)"><g stroke="#3b2b38" stroke-width="2.3" stroke-linejoin="round" stroke-linecap="round"><path fill="#a45e47" stroke="none" d="M-4-3Q-6 0-3 4Q5 7 14 3L14-3Q4-7-4-3Z"/><path fill="none" stroke-width="1.8" d="M0-5Q8-6 14-3M0 5Q8 6 14 3"/></g></g></g><g transform="translate(10.163635172110746 0)"><g stroke="#3b2b38" stroke-width="2.3" stroke-linejoin="round" stroke-linecap="round"><path fill="#a45e47" stroke="none" d="M-5-4Q1-7 6-4Q11-2 9 3Q7 7 0 5L-5 3Z"/><path fill="none" stroke-width="1.8" d="M-1-5Q5-7 9-2Q12 3 6 5Q2 7-2 4"/><path fill="none" stroke-width="1.2" d="M4-1l4 2M2 2l4 2"/></g></g></g><g transform="translate(0 0)"><g stroke="#3b2b38" stroke-width="2.3" stroke-linejoin="round" stroke-linecap="round"><path fill="#d88b51" d="M-16-12Q-22-3-16 13Q-2 21 17 12Q22 1 14-13L3-17Z"/><path fill="#ffe0a1" stroke="none" d="M-5-9Q10-12 13 1L10 12Q-3 16-9 7Z"/><path stroke="#a45e47" d="M-12 0l3 2m-4 3 3 2"/></g></g><g transform="rotate(-11.459155902616464)"><g stroke="#34333e" stroke-width="1.8" stroke-linejoin="round" stroke-linecap="round"><path d="M-14 3L-16 14L-9 15L-5 4" fill="#9f7754"/><path d="M-22-8L-16-10L21-7V7L-16 10L-22 7Z" fill="#607e80"/><path d="M-20 3L19 2V7L-16 10L-20 7Z" fill="#40565e" stroke="none"/><path d="M-14-7L15-5" stroke="#afd0bd" stroke-width="2.5"/><path d="M-7-10L-1-9V9L-7 10Z" fill="#a3b98b"/><path d="M18-10H26V10H18Z" fill="#ddb477"/><ellipse cx="26" cy="0" rx="3" ry="10" fill="#4b4c50"/><ellipse cx="26" cy="0" rx="1.3" ry="6" fill="#222f35" stroke="none"/><path d="M3-7V-13H9V-7" fill="#718d88"/><path d="M3-13H11" stroke="#f2d69b"/><circle cx="-12" cy="1" r="2.1" fill="#e9c87f" stroke="none"/></g></g><g transform="translate(6 0) rotate(22.572651884952794)"><g transform="scale(0.7159173507132198 1)"><g transform="translate(0 0)"><g stroke="#3b2b38" stroke-width="2.3" stroke-linejoin="round" stroke-linecap="round"><path fill="#d88b51" stroke="none" d="M-4-3Q-6 0-3 4Q5 7 14 3L14-3Q4-7-4-3Z"/><path fill="none" stroke-width="1.8" d="M0-5Q8-6 14-3M0 5Q8 6 14 3"/></g></g></g><g transform="translate(8.591008208558637 0)"><g stroke="#3b2b38" stroke-width="2.3" stroke-linejoin="round" stroke-linecap="round"><path fill="#d88b51" stroke="none" d="M-5-4Q1-7 6-4Q11-2 9 3Q7 7 0 5L-5 3Z"/><path fill="none" stroke-width="1.8" d="M-1-5Q5-7 9-2Q12 3 6 5Q2 7-2 4"/><path fill="none" stroke-width="1.2" d="M4-1l4 2M2 2l4 2"/></g></g></g><g transform="translate(0 -14) scale(0.94)"><g transform="translate(-15 -20)"><g stroke="#3b2b38" stroke-width="2.3" stroke-linejoin="round" stroke-linecap="round"><path fill="#d88b51" d="M-6 6C-14-7-9-16 0-15C9-14 12-4 6 6Z"/><path fill="#edab96" stroke="none" d="M-3 2Q-9-10-1-11Q6-11 4 2Z"/></g></g><g transform="translate(10 -24)"><g stroke="#3b2b38" stroke-width="2.3" stroke-linejoin="round" stroke-linecap="round"><path fill="#d88b51" d="M-6 6C-14-7-9-16 0-15C9-14 12-4 6 6Z"/><path fill="#edab96" stroke="none" d="M-3 2Q-9-10-1-11Q6-11 4 2Z"/></g></g><g transform="translate(0 0)"><g stroke="#3b2b38" stroke-width="2.3" stroke-linejoin="round" stroke-linecap="round"><path fill="#d88b51" d="M-19-21L-9-27L2-25L9-27Q23-23 23-11L28-3L25 7L14 12L-10 9Q-25 5-24-9Z"/><path fill="#ffe0a1" stroke="none" d="M4-23Q18-20 17-8Q29-1 21 7Q10 13-1 6Q-7-3 1-7Z"/><path fill="#a45e47" stroke="none" d="M13 5L25 1L23 8L14 11L2 8Z"/><path fill="#3b2b38" d="M22-2l5 1-3 3Z"/><path fill="none" stroke-width="1.7" d="M10 6Q16 4 22 6M10 6l-2 2"/></g></g><g transform="translate(0 0)"><g stroke="#3b2b38" stroke-width="2.3" stroke-linejoin="round" stroke-linecap="round"><path fill="#efe8d1" d="M-5-14L10-10L8-4Q0 0-5-7Z"/><path fill="#3b2b38" stroke="none" d="M3-11Q8-11 7-5Q3-1 1-6Z"/><circle fill="#fff9e6" stroke="none" cx="5" cy="-8" r=".8"/><path fill="none" stroke-width="3.3" d="M-7-18L10-13"/><path fill="none" stroke="#a45e47" stroke-width="1.3" d="M-4-1Q1 1 6-1"/></g></g></g></g><g transform="translate(550 438) scale(-2.4 2.4)"><g transform="translate(0 0)"><g stroke="#3b2b38" stroke-width="2.3" stroke-linejoin="round" stroke-linecap="round"><path fill="#f8e9c9" d="M-14 1Q-31-5-24-12Q-13-11-10-5Z"/></g></g><g transform="translate(-8 10) rotate(0)"><g transform="translate(0 0)"><g stroke="#3b2b38" stroke-width="2.3" stroke-linejoin="round" stroke-linecap="round"><path fill="#d6baa0" d="M-5-5Q0-8 5-4L4 8Q0 11-4 8Z"/></g></g><g transform="translate(0 7)"><g stroke="#3b2b38" stroke-width="2.3" stroke-linejoin="round" stroke-linecap="round"><path fill="#51444c" d="M-5-1Q-2-5 4-3Q10-2 11 3Q10 6 6 6H-5Q-8 4-5-1Z"/><path fill="none" stroke="#a68b7d" stroke-width="1.2" d="M3 2v3M7 2v3"/></g></g></g><g transform="translate(8 10) rotate(0)"><g transform="translate(0 0)"><g stroke="#3b2b38" stroke-width="2.3" stroke-linejoin="round" stroke-linecap="round"><path fill="#f8e9c9" d="M-5-5Q0-8 5-4L4 8Q0 11-4 8Z"/></g></g><g transform="translate(0 7)"><g stroke="#3b2b38" stroke-width="2.3" stroke-linejoin="round" stroke-linecap="round"><path fill="#51444c" d="M-5-1Q-2-5 4-3Q10-2 11 3Q10 6 6 6H-5Q-8 4-5-1Z"/><path fill="none" stroke="#a68b7d" stroke-width="1.2" d="M3 2v3M7 2v3"/></g></g></g><g transform="translate(-6 -3) rotate(87.42459454086298)"><g transform="scale(1.011351228254362 1)"><g transform="translate(0 0)"><g stroke="#3b2b38" stroke-width="2.3" stroke-linejoin="round" stroke-linecap="round"><path fill="#d6baa0" stroke="none" d="M-4-3Q-6 0-3 4Q5 7 14 3L14-3Q4-7-4-3Z"/><path fill="none" stroke-width="1.8" d="M0-5Q8-6 14-3M0 5Q8 6 14 3"/></g></g></g><g transform="translate(12.136214739052344 0)"><g stroke="#3b2b38" stroke-width="2.3" stroke-linejoin="round" stroke-linecap="round"><path fill="#d6baa0" stroke="none" d="M-5-4Q1-7 6-4Q11-2 9 3Q7 7 0 5L-5 3Z"/><path fill="none" stroke-width="1.8" d="M-1-5Q5-7 9-2Q12 3 6 5Q2 7-2 4"/><path fill="none" stroke-width="1.2" d="M4-1l4 2M2 2l4 2"/></g></g></g><g transform="translate(0 0)"><g stroke="#3b2b38" stroke-width="2.3" stroke-linejoin="round" stroke-linecap="round"><path fill="#f8e9c9" d="M-10-30L8-30L11-12Q22-7 16 10Q13 18-9 15Q-21 10-17-3L-9-14Z"/><path fill="#fff9e7" stroke="none" d="M-5-23H5L7 3Q2 12-8 7Z"/></g></g><g transform="rotate(-10.313240312354818)"><g stroke="#34333e" stroke-width="1.8" stroke-linejoin="round" stroke-linecap="round"><path d="M-18 4L-20 15L-12 16L-6 3" fill="#ae8059"/><path d="M-18-7L-10-10H12L17-5V5L10 9H-16Z" fill="#5c8b8c"/><path d="M-16 3H14L10 9H-16Z" fill="#3f656d" stroke="none"/><circle cx="-7" cy="0" r="7" fill="#d3b887"/><circle cx="-7" cy="0" r="4.5" fill="none" stroke="#876e56"/><circle cx="-7" cy="0" r="2" fill="#e9d9ad" stroke="none"/><path d="M1-4H22V2H1Z" fill="#afc9bf"/><path d="M17-1L25-12L29-10L25-4M17 1L25 12L29 10L25 4" fill="none" stroke="#34333e" stroke-width="4"/><path d="M17-1L25-11L28-10M17 1L25 11L28 10" fill="none" stroke="#d4e1cf" stroke-width="1.6"/></g></g><g transform="translate(6 -1) rotate(50.13272296771749)"><g transform="scale(0.6619284375562428 1)"><g transform="translate(0 0)"><g stroke="#3b2b38" stroke-width="2.3" stroke-linejoin="round" stroke-linecap="round"><path fill="#f8e9c9" stroke="none" d="M-4-3Q-6 0-3 4Q5 7 14 3L14-3Q4-7-4-3Z"/><path fill="none" stroke-width="1.8" d="M0-5Q8-6 14-3M0 5Q8 6 14 3"/></g></g></g><g transform="translate(7.943141250674913 0)"><g stroke="#3b2b38" stroke-width="2.3" stroke-linejoin="round" stroke-linecap="round"><path fill="#f8e9c9" stroke="none" d="M-5-4Q1-7 6-4Q11-2 9 3Q7 7 0 5L-5 3Z"/><path fill="none" stroke-width="1.8" d="M-1-5Q5-7 9-2Q12 3 6 5Q2 7-2 4"/><path fill="none" stroke-width="1.2" d="M4-1l4 2M2 2l4 2"/></g></g></g><g transform="translate(1 -26) scale(0.94)"><g transform="translate(-10 -22)"><g stroke="#3b2b38" stroke-width="2.3" stroke-linejoin="round" stroke-linecap="round"><path fill="#f8e9c9" d="M-5 4C-10-9-7-26-2-27C5-26 8-6 5 5Z"/><path stroke="none" fill="#e9aa98" d="M-1-20Q4-13 2 0L-2 0Z"/></g></g><g transform="translate(8 -23)"><g stroke="#3b2b38" stroke-width="2.3" stroke-linejoin="round" stroke-linecap="round"><path fill="#f8e9c9" d="M-5 4C-10-9-7-26-2-27C5-26 8-6 5 5Z"/><path stroke="none" fill="#e9aa98" d="M-1-20Q4-13 2 0L-2 0Z"/></g></g><g transform="translate(0 0)"><g stroke="#3b2b38" stroke-width="2.3" stroke-linejoin="round" stroke-linecap="round"><path fill="#f8e9c9" d="M-17-17Q-16-26-6-26L-1-29L5-26L10-28L13-23Q21-22 19-9L26-6Q32-1 26 7Q16 13 4 8Q-14 11-19 0Z"/><path fill="#fff9e7" stroke="none" d="M2-22Q14-20 13-9L23-3Q25 5 14 6L0 1Z"/><path fill="#d6baa0" d="M15-5Q32-8 30 1Q29 9 16 7Q9 4 15-5Z"/><path fill="#3b2b38" stroke="none" d="M24-3l4 1-3 3Z"/><path fill="none" stroke-width="1.7" d="M16 4Q21 2 26 4M16 4l-2 2"/></g></g><g transform="translate(0 0)"><g stroke="#3b2b38" stroke-width="2.3" stroke-linejoin="round" stroke-linecap="round"><path fill="#efe8d1" d="M-5-14L10-10L8-4Q0 0-5-7Z"/><path fill="#3b2b38" stroke="none" d="M3-11Q8-11 7-5Q3-1 1-6Z"/><circle fill="#fff9e6" stroke="none" cx="5" cy="-8" r=".8"/><path fill="none" stroke-width="3.3" d="M-7-18L10-13"/><path fill="none" stroke="#d6baa0" stroke-width="1.3" d="M-4-1Q1 1 6-1"/></g></g></g></g><path d="M236 367Q375 125 518 358" fill="none" stroke="#fff7d9" stroke-width="5" stroke-dasharray="3 16" stroke-linecap="round"/><g transform="translate(383 249) rotate(-4)"><g stroke="#34333e" stroke-width="1.8" stroke-linejoin="round" stroke-linecap="round"><path d="M-14-5L-24-10L-20-1L-25 7L-13 4" fill="#719b98"/><path d="M-15-6H7Q16-5 23 0Q16 6 7 6H-15Z" fill="#e4ddbc"/><path d="M-14 2H12L7 6H-14Z" fill="#aaa78d" stroke="none"/><path d="M9-6Q18-4 23 0L10 6Z" fill="#e98465"/><path d="M-11-3H5" stroke="#fff4d1" stroke-width="2"/><path d="M-17-3L-28 0L-17 3" fill="#f5bb66" stroke="none"/></g></g><text x="38" y="52" font-family="Arial" font-size="13" font-weight="bold" letter-spacing="2" fill="#3a5149">TINY CRITTERS / SERIOUS RIVALRY</text><g font-family="Arial" font-size="13" font-weight="bold" fill="#f8e7bb"><text x="92" y="558">CUY / SMALL BUT SPICY</text><text x="430" y="574">LLAMA / ZERO DRAMA*</text></g></svg>